<svg xmlns="http://www.w3.org/2000/svg" xmlns:xlink="http://www.w3.org/1999/xlink" width="85" height="130" viewBox="0 0 85 130"><rect width="100%" height="100%" fill="#DDDDDD"/><path d="M17.00 69.09L17.00 69.09Q17.46 69.09 17.80 68.96Q18.15 68.83 18.38 68.60Q18.62 68.37 18.74 68.05Q18.86 67.72 18.86 67.35L18.86 67.35Q18.86 66.45 18.36 66.00Q17.87 65.54 17.00 65.54L17.00 65.54Q16.13 65.54 15.63 66.00Q15.14 66.45 15.14 67.35L15.14 67.35Q15.14 67.72 15.26 68.05Q15.38 68.37 15.62 68.60Q15.85 68.83 16.20 68.96Q16.54 69.09 17.00 69.09ZM17.00 60.85L17.00 60.85Q16.59 60.85 16.29 60.98Q15.99 61.11 15.79 61.32Q15.59 61.53 15.50 61.81Q15.40 62.09 15.40 62.40L15.40 62.40Q15.40 62.72 15.48 63.02Q15.56 63.33 15.75 63.56Q15.93 63.80 16.24 63.94Q16.55 64.08 17.00 64.08L17.00 64.08Q17.45 64.08 17.76 63.94Q18.06 63.80 18.25 63.56Q18.44 63.33 18.52 63.02Q18.60 62.72 18.60 62.40L18.60 62.40Q18.60 62.09 18.50 61.81Q18.40 61.53 18.21 61.32Q18.01 61.11 17.71 60.98Q17.41 60.85 17.00 60.85ZM18.83 64.77L18.83 64.77Q19.82 65.09 20.29 65.75Q20.76 66.42 20.76 67.38L20.76 67.38Q20.76 68.10 20.49 68.68Q20.22 69.27 19.72 69.68Q19.23 70.09 18.53 70.32Q17.84 70.54 17.00 70.54L17.00 70.54Q16.16 70.54 15.47 70.32Q14.77 70.09 14.28 69.68Q13.78 69.27 13.51 68.68Q13.23 68.10 13.23 67.38L13.23 67.38Q13.23 66.42 13.71 65.75Q14.18 65.09 15.17 64.77L15.17 64.77Q14.38 64.44 13.99 63.83Q13.59 63.22 13.59 62.37L13.59 62.37Q13.59 61.75 13.85 61.22Q14.10 60.69 14.55 60.29Q15.00 59.90 15.62 59.68Q16.25 59.46 17.00 59.46L17.00 59.46Q17.75 59.46 18.38 59.68Q19.00 59.90 19.45 60.29Q19.90 60.69 20.15 61.22Q20.40 61.75 20.40 62.37L20.40 62.37Q20.40 63.22 20.01 63.83Q19.62 64.44 18.83 64.77ZM24.78 61.26L24.39 63.52Q24.75 63.44 25.08 63.41Q25.41 63.37 25.72 63.37L25.72 63.37Q26.58 63.37 27.23 63.63Q27.88 63.88 28.32 64.33Q28.77 64.78 28.99 65.39Q29.22 65.99 29.22 66.69L29.22 66.69Q29.22 67.55 28.91 68.26Q28.61 68.97 28.07 69.48Q27.53 69.99 26.79 70.27Q26.05 70.54 25.18 70.54L25.18 70.54Q24.67 70.54 24.21 70.44Q23.76 70.33 23.36 70.16Q22.95 69.98 22.61 69.75Q22.27 69.52 22.00 69.27L22.00 69.27L22.57 68.48Q22.75 68.22 23.04 68.22L23.04 68.22Q23.23 68.22 23.43 68.34Q23.62 68.47 23.87 68.61Q24.12 68.75 24.47 68.87Q24.81 68.99 25.29 68.99L25.29 68.99Q25.80 68.99 26.19 68.83Q26.58 68.66 26.84 68.36Q27.09 68.07 27.23 67.66Q27.36 67.25 27.36 66.77L27.36 66.77Q27.36 65.89 26.84 65.39Q26.33 64.89 25.32 64.89L25.32 64.89Q24.55 64.89 23.74 65.17L23.74 65.17L22.59 64.84L23.49 59.58L28.84 59.58L28.84 60.37Q28.84 60.76 28.59 61.01Q28.35 61.26 27.75 61.26L27.75 61.26L24.78 61.26ZM41.58 67.94L40.60 68.91L38.06 66.36L35.49 68.92L34.51 67.95L37.08 65.38L34.63 62.94L35.61 61.96L38.05 64.41L40.48 61.98L41.47 62.95L39.03 65.39L41.58 67.94ZM51.85 69.03L53.80 69.03L53.80 70.42L47.80 70.42L47.80 69.03L50 69.03L50 62.71Q50 62.34 50.02 61.94L50.02 61.94L48.46 63.24Q48.33 63.35 48.20 63.38Q48.06 63.40 47.95 63.38Q47.83 63.36 47.74 63.30Q47.65 63.24 47.61 63.18L47.61 63.18L47.02 62.38L50.33 59.56L51.85 59.56L51.85 69.03ZM56.52 62.77L55.55 62.60Q55.66 61.82 55.98 61.23Q56.31 60.64 56.79 60.25Q57.27 59.86 57.90 59.66Q58.53 59.46 59.25 59.46L59.25 59.46Q60.00 59.46 60.60 59.67Q61.20 59.88 61.63 60.26Q62.06 60.64 62.29 61.15Q62.52 61.66 62.52 62.25L62.52 62.25Q62.52 62.77 62.40 63.17Q62.28 63.56 62.07 63.85Q61.85 64.14 61.53 64.35Q61.20 64.55 60.80 64.69L60.80 64.69Q61.77 64.99 62.25 65.62Q62.73 66.25 62.73 67.20L62.73 67.20Q62.73 68.02 62.43 68.64Q62.13 69.26 61.62 69.68Q61.11 70.11 60.44 70.33Q59.77 70.54 59.02 70.54L59.02 70.54Q58.20 70.54 57.60 70.36Q56.99 70.17 56.54 69.80Q56.09 69.43 55.77 68.90Q55.46 68.37 55.23 67.67L55.23 67.67L56.05 67.33Q56.37 67.20 56.66 67.26Q56.94 67.33 57.06 67.56L57.06 67.56Q57.20 67.83 57.36 68.08Q57.52 68.34 57.75 68.54Q57.97 68.73 58.28 68.86Q58.58 68.98 59.00 68.98L59.00 68.98Q59.47 68.98 59.82 68.83Q60.18 68.67 60.41 68.43Q60.65 68.18 60.77 67.88Q60.88 67.57 60.88 67.27L60.88 67.27Q60.88 66.88 60.80 66.56Q60.72 66.24 60.45 66.01Q60.19 65.79 59.70 65.66Q59.21 65.53 58.38 65.53L58.38 65.53L58.38 64.21Q59.07 64.20 59.52 64.08Q59.97 63.97 60.23 63.75Q60.50 63.54 60.60 63.24Q60.71 62.94 60.71 62.58L60.71 62.58Q60.71 61.81 60.28 61.41Q59.85 61.02 59.14 61.02L59.14 61.02Q58.81 61.02 58.53 61.11Q58.26 61.20 58.04 61.37Q57.81 61.54 57.66 61.77Q57.51 61.99 57.44 62.26L57.44 62.26Q57.31 62.61 57.11 62.72Q56.90 62.83 56.52 62.77L56.52 62.77ZM71.77 65L71.77 65Q71.77 66.42 71.46 67.46Q71.16 68.51 70.62 69.19Q70.08 69.88 69.35 70.21Q68.62 70.54 67.77 70.54L67.77 70.54Q66.93 70.54 66.20 70.21Q65.48 69.88 64.95 69.19Q64.41 68.51 64.11 67.46Q63.81 66.42 63.81 65L63.81 65Q63.81 63.58 64.11 62.53Q64.41 61.49 64.95 60.81Q65.48 60.13 66.20 59.79Q66.93 59.46 67.77 59.46L67.77 59.46Q68.62 59.46 69.35 59.79Q70.08 60.13 70.62 60.81Q71.16 61.49 71.46 62.53Q71.77 63.58 71.77 65ZM69.85 65L69.85 65Q69.85 63.82 69.68 63.05Q69.51 62.28 69.22 61.82Q68.93 61.36 68.55 61.18Q68.18 60.99 67.77 60.99L67.77 60.99Q67.38 60.99 67.01 61.18Q66.63 61.36 66.35 61.82Q66.06 62.28 65.90 63.05Q65.73 63.82 65.73 65L65.73 65Q65.73 66.18 65.90 66.95Q66.06 67.72 66.35 68.18Q66.63 68.64 67.01 68.82Q67.38 69.00 67.77 69.00L67.77 69.00Q68.18 69.00 68.55 68.82Q68.93 68.64 69.22 68.18Q69.51 67.72 69.68 66.95Q69.85 66.18 69.85 65Z" fill="#999999"/></svg>