<svg xmlns="http://www.w3.org/2000/svg" xmlns:xlink="http://www.w3.org/1999/xlink" width="701" height="483" viewBox="0 0 701 483"><rect width="100%" height="100%" fill="#DDDDDD"/><path d="M139.01 207.16L186.46 207.16L186.46 212.24Q186.46 214.52 185.98 215.92Q185.51 217.32 185.03 218.27L185.03 218.27L159.00 271.85Q158.20 273.51 156.72 274.68Q155.25 275.84 152.78 275.84L152.78 275.84L144.28 275.84L170.83 223.35Q171.73 221.74 172.61 220.39Q173.49 219.03 174.58 217.80L174.58 217.80L141.71 217.80Q140.62 217.80 139.81 216.99Q139.01 216.18 139.01 215.09L139.01 215.09L139.01 207.16ZM242.41 241.50L242.41 241.50Q242.41 250.48 240.49 257.10Q238.57 263.73 235.17 268.05Q231.77 272.38 227.14 274.49Q222.51 276.60 217.14 276.60L217.14 276.60Q211.78 276.60 207.19 274.49Q202.61 272.38 199.24 268.05Q195.86 263.73 193.96 257.10Q192.06 250.48 192.06 241.50L192.06 241.50Q192.06 232.47 193.96 225.87Q195.86 219.27 199.24 214.95Q202.61 210.62 207.19 208.51Q211.78 206.40 217.14 206.40L217.14 206.40Q222.51 206.40 227.14 208.51Q231.77 210.62 235.17 214.95Q238.57 219.27 240.49 225.87Q242.41 232.47 242.41 241.50ZM230.30 241.50L230.30 241.50Q230.30 234.04 229.21 229.15Q228.12 224.26 226.29 221.36Q224.46 218.46 222.08 217.30Q219.71 216.13 217.14 216.13L217.14 216.13Q214.63 216.13 212.28 217.30Q209.92 218.46 208.12 221.36Q206.31 224.26 205.25 229.15Q204.18 234.04 204.18 241.50L204.18 241.50Q204.18 248.96 205.25 253.85Q206.31 258.74 208.12 261.64Q209.92 264.54 212.28 265.70Q214.63 266.86 217.14 266.86L217.14 266.86Q219.71 266.86 222.08 265.70Q224.46 264.54 226.29 261.64Q228.12 258.74 229.21 253.85Q230.30 248.96 230.30 241.50ZM281.60 267.05L293.95 267.05L293.95 275.84L255.95 275.84L255.95 267.05L269.87 267.05L269.87 227.01Q269.87 224.64 270.01 222.12L270.01 222.12L260.13 230.38Q259.28 231.05 258.44 231.22Q257.61 231.38 256.88 231.24Q256.14 231.10 255.57 230.74Q255.00 230.38 254.72 229.96L254.72 229.96L251.01 224.87L271.96 207.06L281.60 207.06L281.60 267.05ZM372.94 260.12L366.72 266.25L350.62 250.14L334.37 266.34L328.15 260.21L344.40 243.92L328.91 228.44L335.09 222.26L350.57 237.75L365.96 222.36L372.23 228.53L356.79 243.97L372.94 260.12ZM414.08 249.95L434.98 249.95L434.98 227.49Q434.98 224.30 435.41 220.46L435.41 220.46L414.08 249.95ZM445.19 249.95L453.84 249.95L453.84 256.75Q453.84 257.70 453.22 258.39Q452.60 259.07 451.46 259.07L451.46 259.07L445.19 259.07L445.19 275.84L434.98 275.84L434.98 259.07L406.00 259.07Q404.82 259.07 403.91 258.34Q403.01 257.60 402.77 256.51L402.77 256.51L401.54 250.57L434.08 207.11L445.19 207.11L445.19 249.95ZM483.81 267.43L483.81 267.43Q486.71 267.43 488.89 266.60Q491.08 265.77 492.57 264.30Q494.07 262.83 494.83 260.78Q495.59 258.74 495.59 256.37L495.59 256.37Q495.59 250.71 492.45 247.82Q489.32 244.92 483.81 244.92L483.81 244.92Q478.30 244.92 475.16 247.82Q472.03 250.71 472.03 256.37L472.03 256.37Q472.03 258.74 472.79 260.78Q473.55 262.83 475.05 264.30Q476.54 265.77 478.73 266.60Q480.91 267.43 483.81 267.43ZM483.81 215.23L483.81 215.23Q481.20 215.23 479.30 216.04Q477.40 216.85 476.14 218.20Q474.88 219.55 474.29 221.31Q473.69 223.07 473.69 225.02L473.69 225.02Q473.69 227.06 474.19 228.98Q474.69 230.91 475.88 232.40Q477.06 233.90 479.01 234.80Q480.96 235.70 483.81 235.70L483.81 235.70Q486.66 235.70 488.61 234.80Q490.55 233.90 491.74 232.40Q492.93 230.91 493.43 228.98Q493.93 227.06 493.93 225.02L493.93 225.02Q493.93 223.07 493.31 221.31Q492.69 219.55 491.46 218.20Q490.22 216.85 488.32 216.04Q486.42 215.23 483.81 215.23ZM495.40 240.03L495.40 240.03Q501.67 242.07 504.66 246.27Q507.65 250.48 507.65 256.56L507.65 256.56Q507.65 261.12 505.92 264.82Q504.19 268.53 501.05 271.14Q497.92 273.75 493.52 275.18Q489.13 276.60 483.81 276.60L483.81 276.60Q478.49 276.60 474.10 275.18Q469.70 273.75 466.57 271.14Q463.43 268.53 461.70 264.82Q459.96 261.12 459.96 256.56L459.96 256.56Q459.96 250.48 462.96 246.27Q465.95 242.07 472.22 240.03L472.22 240.03Q467.23 237.94 464.74 234.09Q462.24 230.24 462.24 224.83L462.24 224.83Q462.24 220.93 463.84 217.56Q465.43 214.19 468.28 211.69Q471.13 209.20 475.09 207.80Q479.06 206.40 483.81 206.40L483.81 206.40Q488.56 206.40 492.53 207.80Q496.49 209.20 499.34 211.69Q502.19 214.19 503.78 217.56Q505.37 220.93 505.37 224.83L505.37 224.83Q505.37 230.24 502.88 234.09Q500.39 237.94 495.40 240.03ZM522.66 227.39L516.49 226.30Q517.20 221.36 519.24 217.63Q521.29 213.90 524.35 211.41Q527.41 208.91 531.38 207.66Q535.35 206.40 539.91 206.40L539.91 206.40Q544.66 206.40 548.48 207.75Q552.30 209.10 555.01 211.50Q557.72 213.90 559.17 217.13Q560.62 220.36 560.62 224.11L560.62 224.11Q560.62 227.39 559.88 229.89Q559.14 232.38 557.77 234.23Q556.39 236.08 554.35 237.37Q552.30 238.65 549.74 239.50L549.74 239.50Q555.91 241.45 558.95 245.44Q561.99 249.43 561.99 255.46L561.99 255.46Q561.99 260.59 560.09 264.54Q558.19 268.48 554.96 271.16Q551.73 273.85 547.48 275.22Q543.23 276.60 538.48 276.60L538.48 276.60Q533.30 276.60 529.46 275.41Q525.61 274.23 522.76 271.90Q519.91 269.57 517.91 266.20Q515.92 262.83 514.49 258.41L514.49 258.41L519.67 256.27Q521.71 255.42 523.50 255.82Q525.28 256.22 526.08 257.74L526.08 257.74Q526.94 259.41 527.96 261.02Q528.98 262.64 530.41 263.90Q531.83 265.15 533.75 265.94Q535.68 266.72 538.34 266.72L538.34 266.72Q541.33 266.72 543.56 265.75Q545.80 264.77 547.29 263.21Q548.79 261.64 549.53 259.72Q550.26 257.79 550.26 255.84L550.26 255.84Q550.26 253.37 549.74 251.36Q549.22 249.34 547.55 247.91Q545.89 246.49 542.78 245.68Q539.67 244.87 534.44 244.87L534.44 244.87L534.44 236.51Q538.77 236.46 541.62 235.70Q544.47 234.94 546.15 233.59Q547.84 232.24 548.50 230.34Q549.17 228.44 549.17 226.16L549.17 226.16Q549.17 221.31 546.46 218.79Q543.75 216.28 539.24 216.28L539.24 216.28Q537.15 216.28 535.39 216.87Q533.64 217.46 532.24 218.53Q530.83 219.60 529.88 221.03Q528.93 222.45 528.46 224.16L528.46 224.16Q527.65 226.35 526.35 227.06Q525.04 227.77 522.66 227.39L522.66 227.39Z" fill="#999999"/></svg>