<svg xmlns="http://www.w3.org/2000/svg" xmlns:xlink="http://www.w3.org/1999/xlink" width="190" height="290" viewBox="0 0 190 290"><rect width="100%" height="100%" fill="#DDDDDD"/><path d="M43.54 152.26L47.05 152.26L47.05 154.76L36.25 154.76L36.25 152.26L40.21 152.26L40.21 140.88Q40.21 140.21 40.25 139.49L40.25 139.49L37.44 141.84Q37.20 142.03 36.96 142.08Q36.73 142.12 36.52 142.08Q36.31 142.04 36.15 141.94Q35.98 141.84 35.90 141.72L35.90 141.72L34.85 140.28L40.80 135.21L43.54 135.21L43.54 152.26ZM53.20 141.10L53.20 141.10Q53.20 142.73 54.04 143.59Q54.88 144.45 56.44 144.45L56.44 144.45Q57.25 144.45 57.88 144.19Q58.52 143.93 58.95 143.49Q59.38 143.04 59.60 142.44Q59.83 141.83 59.83 141.13L59.83 141.13Q59.83 140.33 59.58 139.70Q59.34 139.07 58.89 138.64Q58.45 138.21 57.83 137.98Q57.22 137.75 56.49 137.75L56.49 137.75Q55.74 137.75 55.13 138.00Q54.52 138.25 54.09 138.70Q53.66 139.14 53.43 139.76Q53.20 140.37 53.20 141.10ZM51.56 154.76L57.63 147.19Q57.85 146.90 58.06 146.63Q58.26 146.36 58.45 146.09L58.45 146.09Q57.77 146.53 56.96 146.75Q56.15 146.97 55.26 146.97L55.26 146.97Q54.25 146.97 53.28 146.62Q52.31 146.27 51.55 145.56Q50.79 144.85 50.33 143.81Q49.86 142.76 49.86 141.36L49.86 141.36Q49.86 140.05 50.35 138.90Q50.83 137.75 51.71 136.89Q52.59 136.02 53.82 135.52Q55.05 135.02 56.53 135.02L56.53 135.02Q58.03 135.02 59.22 135.50Q60.42 135.97 61.26 136.82Q62.11 137.67 62.56 138.86Q63.01 140.05 63.01 141.46L63.01 141.46Q63.01 142.37 62.86 143.18Q62.70 143.99 62.42 144.74Q62.13 145.49 61.73 146.20Q61.32 146.92 60.82 147.62L60.82 147.62L56.36 153.99Q56.13 154.31 55.67 154.54Q55.21 154.76 54.63 154.76L54.63 154.76L51.56 154.76ZM79.39 145L79.39 145Q79.39 147.55 78.84 149.43Q78.29 151.32 77.33 152.55Q76.36 153.78 75.05 154.38Q73.73 154.98 72.21 154.98L72.21 154.98Q70.68 154.98 69.38 154.38Q68.07 153.78 67.12 152.55Q66.16 151.32 65.62 149.43Q65.08 147.55 65.08 145L65.08 145Q65.08 142.44 65.62 140.56Q66.16 138.68 67.12 137.45Q68.07 136.23 69.38 135.62Q70.68 135.02 72.21 135.02L72.21 135.02Q73.73 135.02 75.05 135.62Q76.36 136.23 77.33 137.45Q78.29 138.68 78.84 140.56Q79.39 142.44 79.39 145ZM75.94 145L75.94 145Q75.94 142.88 75.63 141.49Q75.32 140.10 74.80 139.28Q74.28 138.45 73.61 138.12Q72.93 137.79 72.21 137.79L72.21 137.79Q71.49 137.79 70.82 138.12Q70.15 138.45 69.64 139.28Q69.13 140.10 68.82 141.49Q68.52 142.88 68.52 145L68.52 145Q68.52 147.12 68.82 148.51Q69.13 149.90 69.64 150.72Q70.15 151.55 70.82 151.88Q71.49 152.21 72.21 152.21L72.21 152.21Q72.93 152.21 73.61 151.88Q74.28 151.55 74.80 150.72Q75.32 149.90 75.63 148.51Q75.94 147.12 75.94 145ZM100.83 150.29L99.06 152.03L94.48 147.46L89.86 152.06L88.09 150.32L92.71 145.69L88.31 141.29L90.07 139.53L94.47 143.93L98.84 139.56L100.62 141.31L96.24 145.70L100.83 150.29ZM117.08 151.66L122.09 151.66Q122.63 151.66 122.94 151.96Q123.26 152.26 123.26 152.76L123.26 152.76L123.26 154.76L109.87 154.76L109.87 153.65Q109.87 153.32 110.01 152.94Q110.15 152.57 110.46 152.28L110.46 152.28L116.39 146.34Q117.13 145.58 117.72 144.89Q118.31 144.20 118.70 143.53Q119.09 142.85 119.30 142.16Q119.51 141.46 119.51 140.69L119.51 140.69Q119.51 139.99 119.31 139.46Q119.10 138.93 118.73 138.56Q118.36 138.20 117.84 138.01Q117.32 137.83 116.67 137.83L116.67 137.83Q116.08 137.83 115.57 138.00Q115.07 138.17 114.68 138.47Q114.28 138.78 114.01 139.18Q113.74 139.59 113.61 140.07L113.61 140.07Q113.38 140.69 113.02 140.90Q112.65 141.10 111.96 140.99L111.96 140.99L110.21 140.68Q110.41 139.28 110.99 138.22Q111.57 137.16 112.44 136.45Q113.31 135.74 114.44 135.38Q115.57 135.02 116.86 135.02L116.86 135.02Q118.21 135.02 119.33 135.42Q120.45 135.82 121.25 136.55Q122.05 137.28 122.49 138.30Q122.94 139.33 122.94 140.59L122.94 140.59Q122.94 141.67 122.62 142.58Q122.30 143.50 121.77 144.34Q121.24 145.18 120.52 145.96Q119.81 146.74 119.02 147.55L119.02 147.55L114.62 152.05Q115.26 151.86 115.88 151.76Q116.51 151.66 117.08 151.66L117.08 151.66ZM128.96 141.10L128.96 141.10Q128.96 142.73 129.80 143.59Q130.65 144.45 132.20 144.45L132.20 144.45Q133.01 144.45 133.64 144.19Q134.28 143.93 134.71 143.49Q135.14 143.04 135.36 142.44Q135.59 141.83 135.59 141.13L135.59 141.13Q135.59 140.33 135.34 139.70Q135.10 139.07 134.66 138.64Q134.21 138.21 133.60 137.98Q132.98 137.75 132.25 137.75L132.25 137.75Q131.50 137.75 130.89 138.00Q130.28 138.25 129.85 138.70Q129.42 139.14 129.19 139.76Q128.96 140.37 128.96 141.10ZM127.33 154.76L133.39 147.19Q133.62 146.90 133.82 146.63Q134.02 146.36 134.21 146.09L134.21 146.09Q133.54 146.53 132.73 146.75Q131.92 146.97 131.02 146.97L131.02 146.97Q130.01 146.97 129.04 146.62Q128.07 146.27 127.31 145.56Q126.56 144.85 126.09 143.81Q125.62 142.76 125.62 141.36L125.62 141.36Q125.62 140.05 126.11 138.90Q126.60 137.75 127.47 136.89Q128.35 136.02 129.58 135.52Q130.81 135.02 132.29 135.02L132.29 135.02Q133.79 135.02 134.99 135.50Q136.18 135.97 137.03 136.82Q137.87 137.67 138.32 138.86Q138.77 140.05 138.77 141.46L138.77 141.46Q138.77 142.37 138.62 143.18Q138.46 143.99 138.18 144.74Q137.90 145.49 137.49 146.20Q137.09 146.92 136.59 147.62L136.59 147.62L132.12 153.99Q131.89 154.31 131.43 154.54Q130.97 154.76 130.39 154.76L130.39 154.76L127.33 154.76ZM155.15 145L155.15 145Q155.15 147.55 154.60 149.43Q154.06 151.32 153.09 152.55Q152.13 153.78 150.81 154.38Q149.49 154.98 147.97 154.98L147.97 154.98Q146.44 154.98 145.14 154.38Q143.84 153.78 142.88 152.55Q141.92 151.32 141.38 149.43Q140.84 147.55 140.84 145L140.84 145Q140.84 142.44 141.38 140.56Q141.92 138.68 142.88 137.45Q143.84 136.23 145.14 135.62Q146.44 135.02 147.97 135.02L147.97 135.02Q149.49 135.02 150.81 135.62Q152.13 136.23 153.09 137.45Q154.06 138.68 154.60 140.56Q155.15 142.44 155.15 145ZM151.71 145L151.71 145Q151.71 142.88 151.40 141.49Q151.09 140.10 150.57 139.28Q150.05 138.45 149.37 138.12Q148.70 137.79 147.97 137.79L147.97 137.79Q147.25 137.79 146.58 138.12Q145.92 138.45 145.40 139.28Q144.89 140.10 144.59 141.49Q144.28 142.88 144.28 145L144.28 145Q144.28 147.12 144.59 148.51Q144.89 149.90 145.40 150.72Q145.92 151.55 146.58 151.88Q147.25 152.21 147.97 152.21L147.97 152.21Q148.70 152.21 149.37 151.88Q150.05 151.55 150.57 150.72Q151.09 149.90 151.40 148.51Q151.71 147.12 151.71 145Z" fill="#999999"/></svg>